<svg width="600" height="400" viewBox="0 0 600 400" xmlns="http://www.w3.org/2000/svg">
  <rect width="600" height="400" fill="#f8f9fa" />
  <circle cx="300" cy="200" r="150" fill="#4361ee" opacity="0.1" />
  <path d="M300,100 C350,100 390,140 390,190 C390,240 350,280 300,280 C250,280 210,240 210,190 C210,140 250,100 300,100" fill="#4361ee" opacity="0.2" />
  <path d="M300,120 C340,120 370,150 370,190 C370,230 340,260 300,260 C260,260 230,230 230,190 C230,150 260,120 300,120" fill="#4361ee" opacity="0.3" />
  <path d="M300,140 C330,140 350,160 350,190 C350,220 330,240 300,240 C270,240 250,220 250,190 C250,160 270,140 300,140" fill="#4361ee" opacity="0.4" />
  <path d="M300,160 C320,160 330,170 330,190 C330,210 320,220 300,220 C280,220 270,210 270,190 C270,170 280,160 300,160" fill="#4361ee" opacity="0.5" />
  <path d="M300,180 C310,180 310,180 310,190 C310,200 310,200 300,200 C290,200 290,200 290,190 C290,180 290,180 300,180" fill="#4361ee" opacity="0.6" />
  
  <!-- Dumbbell Icon -->
  <circle cx="240" cy="190" r="30" fill="#4361ee" />
  <circle cx="360" cy="190" r="30" fill="#4361ee" />
  <rect x="240" y="180" width="120" height="20" fill="#4361ee" />
  
  <!-- Text -->
  <text x="300" y="350" font-family="Arial, sans-serif" font-size="24" font-weight="bold" text-anchor="middle" fill="#1f2937">StrengthWise</text>
  <text x="300" y="380" font-family="Arial, sans-serif" font-size="16" text-anchor="middle" fill="#6c757d">Train Smarter, Not Harder</text>
</svg>